<svg width="22" height="21" viewBox="0 0 22 21" fill="none" xmlns="http://www.w3.org/2000/svg">
    <path d="M0 21L5 7L14 16L0 21ZM3.3 17.7L10.35 15.2L5.8 10.65L3.3 17.7ZM12.55 11.55L11.5 10.5L17.1 4.9C17.6333 4.36667 18.275 4.1 19.025 4.1C19.775 4.1 20.4167 4.36667 20.95 4.9L21.55 5.5L20.5 6.55L19.9 5.95C19.6667 5.71667 19.375 5.6 19.025 5.6C18.675 5.6 18.3833 5.71667 18.15 5.95L12.55 11.55ZM8.55 7.55L7.5 6.5L8.1 5.9C8.33333 5.66667 8.45 5.38333 8.45 5.05C8.45 4.71667 8.33333 4.43333 8.1 4.2L7.45 3.55L8.5 2.5L9.15 3.15C9.68333 3.68333 9.95 4.31667 9.95 5.05C9.95 5.78333 9.68333 6.41667 9.15 6.95L8.55 7.55ZM10.55 9.55L9.5 8.5L13.1 4.9C13.3333 4.66667 13.45 4.375 13.45 4.025C13.45 3.675 13.3333 3.38333 13.1 3.15L11.5 1.55L12.55 0.5L14.15 2.1C14.6833 2.63333 14.95 3.275 14.95 4.025C14.95 4.775 14.6833 5.41667 14.15 5.95L10.55 9.55ZM14.55 13.55L13.5 12.5L15.1 10.9C15.6333 10.3667 16.275 10.1 17.025 10.1C17.775 10.1 18.4167 10.3667 18.95 10.9L20.55 12.5L19.5 13.55L17.9 11.95C17.6667 11.7167 17.375 11.6 17.025 11.6C16.675 11.6 16.3833 11.7167 16.15 11.95L14.55 13.55Z"
          fill="#B1B3BA"/>
</svg>
