<svg width="72" height="17" viewBox="0 0 72 17" fill="none" xmlns="http://www.w3.org/2000/svg">
    <path d="M-0.000325203 1.66667C-0.000325203 1.20833 0.162869 0.815972 0.489258 0.489583C0.815647 0.163194 1.20801 0 1.66634 0L11.6663 0C12.1247 0 12.517 0.163194 12.8434 0.489583C13.1698 0.815972 13.333 1.20833 13.333 1.66667L13.333 15C13.333 15.4583 13.1698 15.8507 12.8434 16.1771C12.517 16.5035 12.1247 16.6667 11.6663 16.6667H1.66634C1.20801 16.6667 0.815647 16.5035 0.489258 16.1771C0.162869 15.8507 -0.000325203 15.4583 -0.000325203 15L-0.000325203 1.66667ZM1.66634 9.16667V11.25L11.6663 11.25V9.16667L1.66634 9.16667ZM1.66634 5.41667L1.66634 7.5L11.6663 7.5L11.6663 5.41667L1.66634 5.41667ZM1.66634 1.66667V3.75L11.6663 3.75V1.66667L1.66634 1.66667ZM1.66634 12.9167V15L11.6663 15V12.9167L1.66634 12.9167Z"
          fill="#5B22FF"/>
    <path d="M29.784 16.2577H26.193L21.333 4.21567H24.222L28.002 13.5577L31.755 4.21567H34.644L29.784 16.2577Z"
          fill="#5B22FF"/>
    <path d="M47.6988 12.7747C47.1318 14.9887 44.5128 16.5277 41.4618 16.5277C37.3578 16.5277 35.0358 13.7737 35.0358 10.3447C35.0358 6.94267 37.3578 4.18867 41.4618 4.18867C45.0258 4.18867 47.5098 6.29467 47.7528 9.10267V11.1277H37.7898C38.0058 13.0447 39.1128 14.1247 41.4618 14.1247C43.0008 14.1247 44.4858 13.6387 44.8368 12.7747H47.6988ZM37.8708 8.99467H45.0528C44.9178 7.42867 43.5138 6.59167 41.4618 6.59167C39.3558 6.59167 38.2488 7.45567 37.8708 8.99467Z"
          fill="#5B22FF"/>
    <path d="M49.6277 4.18867H52.3277V5.94367C53.2457 4.91767 54.5957 4.18867 56.6477 4.18867C61.2647 4.18867 61.7777 7.37467 61.7777 9.21067V16.2577H59.0777V9.21067C59.0777 7.61767 58.2407 6.86167 56.6477 6.61867C54.6767 6.32167 52.4897 7.53667 52.3277 9.37267V16.2577H49.6277V4.18867Z"
          fill="#5B22FF"/>
    <path d="M63.8061 4.13467H66.4791V0.138672H69.2061V4.13467H71.7441V6.29467H69.2061V16.2577H66.4791V6.29467H63.8061V4.13467Z"
          fill="#5B22FF"/>
</svg>
