<svg width="20" height="21" viewBox="0 0 20 21" fill="none" xmlns="http://www.w3.org/2000/svg">
    <mask id="mask0_110_477" style="mask-type:alpha" maskUnits="userSpaceOnUse" x="0" y="0" width="20" height="21">
        <rect y="0.5" width="20" height="20" fill="#D9D9D9"/>
    </mask>
    <g mask="url(#mask0_110_477)">
        <path d="M9.9987 10.5007C9.08203 10.5007 8.29731 10.1743 7.64453 9.52148C6.99175 8.86871 6.66536 8.08398 6.66536 7.16732C6.66536 6.25065 6.99175 5.46593 7.64453 4.81315C8.29731 4.16037 9.08203 3.83398 9.9987 3.83398C10.9154 3.83398 11.7001 4.16037 12.3529 4.81315C13.0056 5.46593 13.332 6.25065 13.332 7.16732C13.332 8.08398 13.0056 8.86871 12.3529 9.52148C11.7001 10.1743 10.9154 10.5007 9.9987 10.5007ZM3.33203 17.1673V14.834C3.33203 14.3618 3.45356 13.9277 3.69661 13.5319C3.93967 13.1361 4.26259 12.834 4.66536 12.6257C5.52648 12.1951 6.40148 11.8722 7.29036 11.6569C8.17925 11.4416 9.08203 11.334 9.9987 11.334C10.9154 11.334 11.8181 11.4416 12.707 11.6569C13.5959 11.8722 14.4709 12.1951 15.332 12.6257C15.7348 12.834 16.0577 13.1361 16.3008 13.5319C16.5438 13.9277 16.6654 14.3618 16.6654 14.834V17.1673H3.33203Z"
              fill="#5B22FF"/>
    </g>
</svg>
