<svg width="16" height="20" viewBox="0 0 16 20" fill="none" xmlns="http://www.w3.org/2000/svg">
    <path d="M0 2C0 1.45 0.195833 0.979167 0.5875 0.5875C0.979166 0.195833 1.45 0 2 0L14 0C14.55 0 15.0208 0.195833 15.4125 0.5875C15.8042 0.979167 16 1.45 16 2L16 18C16 18.55 15.8042 19.0208 15.4125 19.4125C15.0208 19.8042 14.55 20 14 20L2 20C1.45 20 0.979166 19.8042 0.5875 19.4125C0.195833 19.0208 0 18.55 0 18L0 2ZM2 11V13.5L14 13.5V11L2 11ZM2 6.5V9L14 9L14 6.5L2 6.5ZM2 2V4.5L14 4.5V2L2 2ZM2 15.5V18L14 18V15.5L2 15.5Z"
          fill="#B1B3BA"/>
</svg>
